<?xml version="1.0" encoding="UTF-8"?>
<svg xmlns="http://www.w3.org/2000/svg" version="1.1" viewBox="0 0 203 40">
  <defs>
    <style>
      .cls-1 {
        fill: #50b72a;
      }
    </style>
  </defs>
  <!-- Generator: Adobe Illustrator 28.7.1, SVG Export Plug-In . SVG Version: 1.2.0 Build 142)  -->
  <g>
    <g id="Capa_1">
      <path class="cls-1" d="M18.4,22.7c0,1.4-.2,2.6-.5,3.8-.3,1.2-.8,2.3-1.6,3.2-.7.9-1.8,1.6-3.1,2.1-1.3.5-2.9.8-4.9.8s-3.4-.2-4.7-.6c-1.3-.5-2.4-1-3.2-1.6l2.1-4.8c.8.5,1.6.9,2.5,1.2.9.3,1.8.5,2.9.5,1.5,0,2.6-.4,3.3-1.1.7-.7,1-2,1-3.8V4.3h6.2v18.4Z"/>
      <path class="cls-1" d="M43.7,21.4c0,1.7-.2,3.2-.7,4.6-.5,1.4-1.2,2.5-2.1,3.5-.9,1-2,1.7-3.3,2.2-1.3.5-2.7.8-4.2.8s-3-.3-4.2-.8c-1.3-.5-2.3-1.3-3.2-2.2-.9-1-1.6-2.2-2.1-3.5-.5-1.4-.8-2.9-.8-4.6s.3-3.2.8-4.5c.5-1.4,1.3-2.5,2.2-3.5.9-1,2-1.7,3.3-2.2,1.3-.5,2.7-.8,4.2-.8s2.9.3,4.2.8c1.3.5,2.4,1.3,3.3,2.2.9,1,1.6,2.1,2.1,3.5.5,1.4.8,2.9.8,4.5ZM37.6,21.4c0-1.8-.4-3.3-1.1-4.3-.7-1.1-1.8-1.6-3.1-1.6s-2.4.5-3.2,1.6c-.7,1-1.1,2.5-1.1,4.3s.4,3.3,1.1,4.4c.7,1.1,1.8,1.6,3.2,1.6s2.4-.5,3.1-1.6c.7-1.1,1.1-2.6,1.1-4.4Z"/>
      <path class="cls-1" d="M60.9,16.2c-.5-.1-1.2-.3-1.9-.4-.7-.2-1.5-.2-2.3-.2s-.8,0-1.4.1c-.5,0-.9.1-1.2.2v16.1h-6V12.1c1.1-.4,2.3-.7,3.8-1,1.5-.3,3.1-.5,4.9-.5s.7,0,1.2,0c.5,0,.9,0,1.4.2.5,0,.9.1,1.4.2.5,0,.8.2,1.2.3l-1,4.9Z"/>
      <path class="cls-1" d="M69.8,20.8c0,3.3,1.3,5,4,5s1.2,0,1.7-.2c.5-.2,1-.3,1.4-.6v-9.5c-.3,0-.6,0-1-.1-.4,0-.9,0-1.4,0-1.6,0-2.7.5-3.5,1.6-.8,1-1.2,2.4-1.2,4ZM82.9,29.4c0,3.4-.9,6-2.6,7.6-1.7,1.7-4.4,2.5-8.1,2.5s-2.6-.1-3.8-.4c-1.3-.2-2.5-.5-3.6-.9l1-5c.9.4,1.9.7,2.9.9,1,.2,2.2.3,3.5.3s2.9-.4,3.6-1.1c.7-.7,1.1-1.7,1.1-2.9v-.8c-.6.3-1.3.5-2,.7-.7.1-1.4.2-2.2.2-2.9,0-5.1-.9-6.7-2.6-1.5-1.7-2.3-4.1-2.3-7.2s.2-2.9.7-4.2c.5-1.3,1.2-2.4,2.1-3.3.9-.9,2.1-1.6,3.4-2.1,1.3-.5,2.8-.8,4.5-.8s1.5,0,2.2.1c.8,0,1.5.1,2.3.2.7.1,1.5.2,2.1.4.7.1,1.3.3,1.8.4v17.7Z"/>
      <path class="cls-1" d="M87.5,21.6c0-1.9.3-3.5.8-4.9.6-1.4,1.3-2.6,2.3-3.5.9-.9,2-1.6,3.2-2.1,1.2-.5,2.5-.7,3.8-.7,3,0,5.3.9,7.1,2.8,1.7,1.8,2.6,4.5,2.6,8s0,.7,0,1.2c0,.4,0,.8,0,1.1h-13.5c.1,1.2.7,2.2,1.7,2.9,1,.7,2.4,1.1,4.1,1.1s2.2,0,3.2-.3c1.1-.2,1.9-.5,2.6-.8l.8,4.8c-.3.2-.7.3-1.3.5-.5.2-1.1.3-1.8.4-.6.1-1.3.2-2.1.3-.7,0-1.5.1-2.2.1-1.9,0-3.5-.3-5-.8-1.4-.6-2.5-1.3-3.5-2.3-.9-1-1.6-2.1-2-3.5-.4-1.3-.6-2.8-.6-4.3ZM101.5,19.4c0-.5-.1-1-.3-1.5-.1-.5-.4-.9-.7-1.3-.3-.4-.7-.7-1.2-.9-.5-.2-1-.4-1.7-.4s-1.2.1-1.7.4c-.5.2-.9.5-1.2.9-.3.4-.6.8-.8,1.3-.2.5-.3,1-.4,1.5h7.9Z"/>
      <path class="cls-1" d="M119.8,27.2c.9,0,1.6,0,2.2-.2.6-.2,1.1-.4,1.4-.6.3-.3.6-.6.7-.9.1-.3.2-.7.2-1.2,0-.9-.4-1.7-1.3-2.2-.9-.6-2.3-1.3-4.4-2-.9-.3-1.8-.7-2.7-1.1-.9-.4-1.7-.9-2.4-1.6-.7-.6-1.3-1.4-1.8-2.3-.5-.9-.7-2-.7-3.3s.2-2.4.7-3.4c.5-1,1.2-1.9,2-2.6.9-.7,1.9-1.3,3.2-1.6,1.3-.4,2.7-.6,4.2-.6s3.5.2,4.8.6c1.4.4,2.5.8,3.4,1.3l-1.8,4.9c-.8-.4-1.6-.7-2.6-1-.9-.3-2.1-.5-3.4-.5s-2.6.2-3.2.6c-.6.4-1,1-1,1.9s.1.9.4,1.3c.2.3.6.7,1,1,.5.3,1,.5,1.5.8.6.2,1.2.4,1.9.7,1.4.5,2.7,1.1,3.8,1.6,1.1.5,1.9,1.1,2.6,1.8.7.7,1.3,1.5,1.6,2.4.3.9.5,2.1.5,3.4,0,2.6-.9,4.6-2.7,6-1.8,1.4-4.5,2.1-8.2,2.1s-2.3,0-3.3-.2c-1-.1-1.9-.3-2.6-.5-.7-.2-1.4-.4-2-.7-.5-.2-1-.5-1.4-.7l1.8-5c.8.5,1.8.9,3,1.2,1.2.3,2.7.5,4.5.5Z"/>
      <path class="cls-1" d="M135.1,32V1.9l6-1v10.1c.4-.1.9-.3,1.5-.4.6-.1,1.3-.2,1.8-.2,1.7,0,3.1.2,4.2.7,1.1.5,2.1,1.1,2.7,2,.7.9,1.2,1.9,1.4,3,.3,1.2.4,2.5.4,3.9v11.9h-6v-11.2c0-1.9-.3-3.3-.8-4.1-.5-.8-1.4-1.2-2.7-1.2s-1,0-1.5.2c-.5,0-.9.2-1.2.3v16h-6Z"/>
      <path class="cls-1" d="M178.4,21.4c0,1.7-.2,3.2-.7,4.6-.5,1.4-1.2,2.5-2.1,3.5-.9,1-2,1.7-3.3,2.2-1.3.5-2.7.8-4.2.8s-3-.3-4.2-.8c-1.3-.5-2.3-1.3-3.2-2.2-.9-1-1.6-2.2-2.1-3.5-.5-1.4-.8-2.9-.8-4.6s.3-3.2.8-4.5c.5-1.4,1.3-2.5,2.2-3.5.9-1,2-1.7,3.3-2.2,1.3-.5,2.7-.8,4.2-.8s2.9.3,4.2.8c1.3.5,2.4,1.3,3.3,2.2.9,1,1.6,2.1,2.1,3.5.5,1.4.8,2.9.8,4.5ZM172.3,21.4c0-1.8-.4-3.3-1.1-4.3-.7-1.1-1.8-1.6-3.1-1.6s-2.4.5-3.2,1.6c-.7,1-1.1,2.5-1.1,4.3s.4,3.3,1.1,4.4c.7,1.1,1.8,1.6,3.2,1.6s2.4-.5,3.1-1.6c.7-1.1,1.1-2.6,1.1-4.4Z"/>
      <path class="cls-1" d="M196.5,21.6c0-1.8-.4-3.3-1.2-4.4-.8-1.1-2.1-1.7-3.7-1.7s-1,0-1.5,0c-.5,0-.8,0-1.1.1v10.8c.4.2.9.4,1.4.6.6.2,1.2.2,1.8.2,2.8,0,4.2-1.9,4.2-5.7ZM202.6,21.5c0,1.6-.2,3.1-.6,4.4-.4,1.3-1,2.5-1.8,3.4-.8,1-1.7,1.7-2.9,2.2-1.1.5-2.5.8-4,.8s-1.6,0-2.3-.2-1.4-.4-2.1-.7v7.9h-6V11.7c.5-.2,1.1-.3,1.8-.4.7-.2,1.4-.3,2.2-.4.8-.1,1.5-.2,2.3-.2.8,0,1.6-.1,2.3-.1,1.7,0,3.3.3,4.6.8,1.4.5,2.5,1.2,3.4,2.2.9.9,1.6,2.1,2.1,3.4.5,1.4.8,2.9.8,4.6Z"/>
    </g>
  </g>
</svg>