<svg width="290" height="40" viewBox="0 0 290 40" fill="none" xmlns="http://www.w3.org/2000/svg">
<path d="M23.7598 4.28002V9.60002H15.3998V32H9.15981V9.60002H0.799805V4.28002H23.7598Z" fill="#263238"/>
<path d="M33.3301 32H27.3701V10.96H33.3301V32ZM33.8901 4.88002C33.8901 5.97336 33.5301 6.84002 32.8101 7.48002C32.1168 8.09335 31.2901 8.40002 30.3301 8.40002C29.3701 8.40002 28.5301 8.09335 27.8101 7.48002C27.1168 6.84002 26.7701 5.97336 26.7701 4.88002C26.7701 3.78669 27.1168 2.93335 27.8101 2.32002C28.5301 1.68002 29.3701 1.36002 30.3301 1.36002C31.2901 1.36002 32.1168 1.68002 32.8101 2.32002C33.5301 2.93335 33.8901 3.78669 33.8901 4.88002Z" fill="#263238"/>
<path d="M37.9326 21.64C37.9326 19.7734 38.2126 18.1467 38.7726 16.76C39.3593 15.3467 40.1193 14.1734 41.0526 13.24C41.9859 12.3067 43.0526 11.6 44.2526 11.12C45.4793 10.64 46.7326 10.4 48.0126 10.4C50.9993 10.4 53.3593 11.32 55.0926 13.16C56.826 14.9734 57.6926 17.6534 57.6926 21.2C57.6926 21.5467 57.6793 21.9334 57.6526 22.36C57.626 22.76 57.5993 23.12 57.5726 23.44H44.0526C44.1859 24.6667 44.7593 25.64 45.7726 26.36C46.786 27.08 48.146 27.44 49.8526 27.44C50.946 27.44 52.0126 27.3467 53.0526 27.16C54.1193 26.9467 54.986 26.6934 55.6526 26.4L56.4526 31.24C56.1326 31.4 55.706 31.56 55.1726 31.72C54.6393 31.88 54.0393 32.0134 53.3726 32.12C52.7326 32.2534 52.0393 32.36 51.2926 32.44C50.546 32.52 49.7993 32.56 49.0526 32.56C47.1593 32.56 45.506 32.28 44.0926 31.72C42.7059 31.16 41.546 30.4 40.6126 29.44C39.706 28.4534 39.0259 27.2934 38.5726 25.96C38.1459 24.6267 37.9326 23.1867 37.9326 21.64ZM51.9326 19.36C51.906 18.8534 51.8126 18.36 51.6526 17.88C51.5193 17.4 51.2926 16.9734 50.9726 16.6C50.6793 16.2267 50.2926 15.92 49.8126 15.68C49.3593 15.44 48.786 15.32 48.0926 15.32C47.426 15.32 46.8526 15.44 46.3726 15.68C45.8926 15.8934 45.4926 16.1867 45.1726 16.56C44.8526 16.9334 44.5993 17.3734 44.4126 17.88C44.2526 18.36 44.1326 18.8534 44.0526 19.36H51.9326Z" fill="#263238"/>
<path d="M62.292 11.68C63.3053 11.3867 64.612 11.12 66.212 10.88C67.812 10.6134 69.492 10.48 71.252 10.48C73.0387 10.48 74.5187 10.72 75.692 11.2C76.892 11.6534 77.8387 12.3067 78.532 13.16C79.2253 14.0134 79.7187 15.0267 80.012 16.2C80.3053 17.3734 80.452 18.68 80.452 20.12V32H74.492V20.84C74.492 18.92 74.2387 17.56 73.732 16.76C73.2253 15.96 72.2787 15.56 70.892 15.56C70.4653 15.56 70.012 15.5867 69.532 15.64C69.052 15.6667 68.6253 15.7067 68.252 15.76V32H62.292V11.68Z" fill="#263238"/>
<path d="M90.9267 21.32C90.9267 23.16 91.34 24.64 92.1667 25.76C92.9933 26.88 94.22 27.44 95.8467 27.44C96.38 27.44 96.8733 27.4267 97.3267 27.4C97.78 27.3467 98.1533 27.2934 98.4467 27.24V16.4C98.0733 16.16 97.58 15.96 96.9667 15.8C96.38 15.64 95.78 15.56 95.1667 15.56C92.34 15.56 90.9267 17.48 90.9267 21.32ZM104.407 31.32C103.873 31.48 103.26 31.64 102.567 31.8C101.873 31.9334 101.14 32.0534 100.367 32.16C99.62 32.2667 98.8467 32.3467 98.0467 32.4C97.2734 32.48 96.5267 32.52 95.8067 32.52C94.0733 32.52 92.5267 32.2667 91.1667 31.76C89.8067 31.2534 88.66 30.5334 87.7267 29.6C86.7933 28.64 86.0733 27.4934 85.5667 26.16C85.0867 24.8 84.8467 23.28 84.8467 21.6C84.8467 19.8934 85.06 18.36 85.4867 17C85.9133 15.6134 86.5267 14.44 87.3267 13.48C88.1267 12.52 89.1 11.7867 90.2467 11.28C91.42 10.7734 92.7533 10.52 94.2467 10.52C95.0733 10.52 95.8067 10.6 96.4467 10.76C97.1133 10.92 97.78 11.1467 98.4467 11.44V1.92002L104.407 0.960022V31.32Z" fill="#263238"/>
<path d="M118.027 27.84C118.614 27.84 119.174 27.8267 119.707 27.8C120.241 27.7734 120.667 27.7334 120.987 27.68V23.16C120.747 23.1067 120.387 23.0534 119.907 23C119.427 22.9467 118.987 22.92 118.587 22.92C118.027 22.92 117.494 22.96 116.987 23.04C116.507 23.0934 116.081 23.2134 115.707 23.4C115.334 23.5867 115.041 23.84 114.827 24.16C114.614 24.48 114.507 24.88 114.507 25.36C114.507 26.2934 114.814 26.9467 115.427 27.32C116.067 27.6667 116.934 27.84 118.027 27.84ZM117.547 10.4C119.307 10.4 120.774 10.6 121.947 11C123.121 11.4 124.054 11.9734 124.747 12.72C125.467 13.4667 125.974 14.3734 126.267 15.44C126.561 16.5067 126.707 17.6934 126.707 19V31.4C125.854 31.5867 124.667 31.8 123.147 32.04C121.627 32.3067 119.787 32.44 117.627 32.44C116.267 32.44 115.027 32.32 113.907 32.08C112.814 31.84 111.867 31.4534 111.067 30.92C110.267 30.36 109.654 29.64 109.227 28.76C108.801 27.88 108.587 26.8 108.587 25.52C108.587 24.2934 108.827 23.2534 109.307 22.4C109.814 21.5467 110.481 20.8667 111.307 20.36C112.134 19.8534 113.081 19.4934 114.147 19.28C115.214 19.04 116.321 18.92 117.467 18.92C118.241 18.92 118.921 18.96 119.507 19.04C120.121 19.0934 120.614 19.1734 120.987 19.28V18.72C120.987 17.7067 120.681 16.8934 120.067 16.28C119.454 15.6667 118.387 15.36 116.867 15.36C115.854 15.36 114.854 15.44 113.867 15.6C112.881 15.7334 112.027 15.9334 111.307 16.2L110.547 11.4C110.894 11.2934 111.321 11.1867 111.827 11.08C112.361 10.9467 112.934 10.84 113.547 10.76C114.161 10.6534 114.801 10.5734 115.467 10.52C116.161 10.44 116.854 10.4 117.547 10.4Z" fill="#263238"/>
<path d="M138.737 26.92C139.03 26.9467 139.363 26.9734 139.737 27C140.137 27 140.603 27 141.137 27C144.257 27 146.563 26.2134 148.057 24.64C149.577 23.0667 150.337 20.8934 150.337 18.12C150.337 15.2134 149.617 13.0134 148.177 11.52C146.737 10.0267 144.457 9.28002 141.337 9.28002C140.91 9.28002 140.47 9.29336 140.017 9.32002C139.563 9.32002 139.137 9.34669 138.737 9.40002V26.92ZM156.777 18.12C156.777 20.52 156.403 22.6134 155.657 24.4C154.91 26.1867 153.843 27.6667 152.457 28.84C151.097 30.0134 149.43 30.8934 147.457 31.48C145.483 32.0667 143.27 32.36 140.817 32.36C139.697 32.36 138.39 32.3067 136.897 32.2C135.403 32.12 133.937 31.9334 132.497 31.64V4.64002C133.937 4.37336 135.43 4.20002 136.977 4.12002C138.55 4.01335 139.897 3.96002 141.017 3.96002C143.39 3.96002 145.537 4.22669 147.457 4.76002C149.403 5.29336 151.07 6.13336 152.457 7.28002C153.843 8.42669 154.91 9.89335 155.657 11.68C156.403 13.4667 156.777 15.6134 156.777 18.12Z" fill="#263238"/>
<path d="M160.589 21.64C160.589 19.7734 160.869 18.1467 161.429 16.76C162.016 15.3467 162.776 14.1734 163.709 13.24C164.642 12.3067 165.709 11.6 166.909 11.12C168.136 10.64 169.389 10.4 170.669 10.4C173.656 10.4 176.016 11.32 177.749 13.16C179.482 14.9734 180.349 17.6534 180.349 21.2C180.349 21.5467 180.336 21.9334 180.309 22.36C180.282 22.76 180.256 23.12 180.229 23.44H166.709C166.842 24.6667 167.416 25.64 168.429 26.36C169.442 27.08 170.802 27.44 172.509 27.44C173.602 27.44 174.669 27.3467 175.709 27.16C176.776 26.9467 177.642 26.6934 178.309 26.4L179.109 31.24C178.789 31.4 178.362 31.56 177.829 31.72C177.296 31.88 176.696 32.0134 176.029 32.12C175.389 32.2534 174.696 32.36 173.949 32.44C173.202 32.52 172.456 32.56 171.709 32.56C169.816 32.56 168.162 32.28 166.749 31.72C165.362 31.16 164.202 30.4 163.269 29.44C162.362 28.4534 161.682 27.2934 161.229 25.96C160.802 24.6267 160.589 23.1867 160.589 21.64ZM174.589 19.36C174.562 18.8534 174.469 18.36 174.309 17.88C174.176 17.4 173.949 16.9734 173.629 16.6C173.336 16.2267 172.949 15.92 172.469 15.68C172.016 15.44 171.442 15.32 170.749 15.32C170.082 15.32 169.509 15.44 169.029 15.68C168.549 15.8934 168.149 16.1867 167.829 16.56C167.509 16.9334 167.256 17.3734 167.069 17.88C166.909 18.36 166.789 18.8534 166.709 19.36H174.589Z" fill="#263238"/>
<path d="M200.508 22.68C200.508 24.04 200.348 25.32 200.028 26.52C199.735 27.72 199.202 28.7734 198.428 29.68C197.682 30.56 196.655 31.2667 195.348 31.8C194.068 32.3067 192.442 32.56 190.468 32.56C188.655 32.56 187.095 32.3467 185.788 31.92C184.482 31.4667 183.402 30.9467 182.548 30.36L184.628 25.52C185.402 25.9734 186.228 26.3734 187.108 26.72C187.988 27.0667 188.948 27.24 189.988 27.24C191.508 27.24 192.602 26.8667 193.268 26.12C193.935 25.3734 194.268 24.12 194.268 22.36V4.28002H200.508V22.68Z" fill="#263238"/>
<path d="M225.8 21.44C225.8 23.0934 225.56 24.6134 225.08 26C224.6 27.36 223.907 28.5334 223 29.52C222.093 30.48 221 31.2267 219.72 31.76C218.467 32.2934 217.053 32.56 215.48 32.56C213.933 32.56 212.52 32.2934 211.24 31.76C209.987 31.2267 208.907 30.48 208 29.52C207.093 28.5334 206.387 27.36 205.88 26C205.373 24.6134 205.12 23.0934 205.12 21.44C205.12 19.7867 205.373 18.28 205.88 16.92C206.413 15.56 207.133 14.4 208.04 13.44C208.973 12.48 210.067 11.7334 211.32 11.2C212.6 10.6667 213.987 10.4 215.48 10.4C217 10.4 218.387 10.6667 219.64 11.2C220.92 11.7334 222.013 12.48 222.92 13.44C223.827 14.4 224.533 15.56 225.04 16.92C225.547 18.28 225.8 19.7867 225.8 21.44ZM219.72 21.44C219.72 19.6 219.347 18.16 218.6 17.12C217.88 16.0534 216.84 15.52 215.48 15.52C214.12 15.52 213.067 16.0534 212.32 17.12C211.573 18.16 211.2 19.6 211.2 21.44C211.2 23.28 211.573 24.7467 212.32 25.84C213.067 26.9067 214.12 27.44 215.48 27.44C216.84 27.44 217.88 26.9067 218.6 25.84C219.347 24.7467 219.72 23.28 219.72 21.44Z" fill="#263238"/>
<path d="M243.097 16.24C242.564 16.1067 241.937 15.9734 241.217 15.84C240.497 15.68 239.724 15.6 238.897 15.6C238.524 15.6 238.07 15.64 237.537 15.72C237.03 15.7734 236.644 15.84 236.377 15.92V32H230.417V12.08C231.484 11.7067 232.737 11.36 234.177 11.04C235.644 10.6934 237.27 10.52 239.057 10.52C239.377 10.52 239.764 10.5467 240.217 10.6C240.67 10.6267 241.124 10.68 241.577 10.76C242.03 10.8134 242.484 10.8934 242.937 11C243.39 11.08 243.777 11.1867 244.097 11.32L243.097 16.24Z" fill="#263238"/>
<path d="M251.981 20.8C251.981 24.1334 253.328 25.8 256.021 25.8C256.635 25.8 257.208 25.72 257.741 25.56C258.275 25.4 258.728 25.2134 259.101 25V15.48C258.808 15.4267 258.461 15.3867 258.061 15.36C257.661 15.3067 257.195 15.28 256.661 15.28C255.088 15.28 253.915 15.8 253.141 16.84C252.368 17.88 251.981 19.2 251.981 20.8ZM265.061 29.36C265.061 32.8 264.181 35.3467 262.421 37C260.688 38.68 257.995 39.52 254.341 39.52C253.061 39.52 251.781 39.4 250.501 39.16C249.221 38.9467 248.035 38.6534 246.941 38.28L247.981 33.28C248.915 33.6534 249.888 33.9467 250.901 34.16C251.941 34.3734 253.115 34.48 254.421 34.48C256.128 34.48 257.328 34.1067 258.021 33.36C258.741 32.6134 259.101 31.6534 259.101 30.48V29.72C258.461 30.0134 257.795 30.24 257.101 30.4C256.435 30.5334 255.701 30.6 254.901 30.6C251.995 30.6 249.768 29.7467 248.221 28.04C246.675 26.3067 245.901 23.8934 245.901 20.8C245.901 19.2534 246.141 17.8534 246.621 16.6C247.101 15.32 247.795 14.2267 248.701 13.32C249.635 12.4134 250.768 11.72 252.101 11.24C253.435 10.7334 254.941 10.48 256.621 10.48C257.341 10.48 258.075 10.52 258.821 10.6C259.595 10.6534 260.355 10.7334 261.101 10.84C261.848 10.9467 262.555 11.08 263.221 11.24C263.915 11.3734 264.528 11.52 265.061 11.68V29.36Z" fill="#263238"/>
<path d="M269.651 21.64C269.651 19.7734 269.931 18.1467 270.491 16.76C271.078 15.3467 271.838 14.1734 272.771 13.24C273.705 12.3067 274.771 11.6 275.971 11.12C277.198 10.64 278.451 10.4 279.731 10.4C282.718 10.4 285.078 11.32 286.811 13.16C288.545 14.9734 289.411 17.6534 289.411 21.2C289.411 21.5467 289.398 21.9334 289.371 22.36C289.345 22.76 289.318 23.12 289.291 23.44H275.771C275.905 24.6667 276.478 25.64 277.491 26.36C278.505 27.08 279.865 27.44 281.571 27.44C282.665 27.44 283.731 27.3467 284.771 27.16C285.838 26.9467 286.705 26.6934 287.371 26.4L288.171 31.24C287.851 31.4 287.425 31.56 286.891 31.72C286.358 31.88 285.758 32.0134 285.091 32.12C284.451 32.2534 283.758 32.36 283.011 32.44C282.265 32.52 281.518 32.56 280.771 32.56C278.878 32.56 277.225 32.28 275.811 31.72C274.425 31.16 273.265 30.4 272.331 29.44C271.425 28.4534 270.745 27.2934 270.291 25.96C269.865 24.6267 269.651 23.1867 269.651 21.64ZM283.651 19.36C283.625 18.8534 283.531 18.36 283.371 17.88C283.238 17.4 283.011 16.9734 282.691 16.6C282.398 16.2267 282.011 15.92 281.531 15.68C281.078 15.44 280.505 15.32 279.811 15.32C279.145 15.32 278.571 15.44 278.091 15.68C277.611 15.8934 277.211 16.1867 276.891 16.56C276.571 16.9334 276.318 17.3734 276.131 17.88C275.971 18.36 275.851 18.8534 275.771 19.36H283.651Z" fill="#263238"/>
</svg>
