<svg width="203" height="40" viewBox="0 0 203 40" fill="none" xmlns="http://www.w3.org/2000/svg">
<path d="M18.3604 22.68C18.3604 24.04 18.2004 25.32 17.8804 26.52C17.5871 27.72 17.0537 28.7733 16.2804 29.68C15.5337 30.56 14.5071 31.2666 13.2004 31.8C11.9204 32.3066 10.2937 32.56 8.32039 32.56C6.50706 32.56 4.94706 32.3466 3.64039 31.92C2.33372 31.4666 1.25372 30.9466 0.400391 30.36L2.48039 25.52C3.25372 25.9733 4.08039 26.3733 4.96039 26.72C5.84039 27.0666 6.80039 27.24 7.84039 27.24C9.36039 27.24 10.4537 26.8666 11.1204 26.12C11.7871 25.3733 12.1204 24.12 12.1204 22.36V4.27996H18.3604V22.68Z" fill="black"/>
<path d="M43.6523 21.44C43.6523 23.0933 43.4123 24.6133 42.9323 26C42.4523 27.36 41.7589 28.5333 40.8523 29.52C39.9456 30.48 38.8523 31.2266 37.5723 31.76C36.3189 32.2933 34.9056 32.56 33.3323 32.56C31.7856 32.56 30.3723 32.2933 29.0923 31.76C27.8389 31.2266 26.7589 30.48 25.8523 29.52C24.9456 28.5333 24.2389 27.36 23.7323 26C23.2256 24.6133 22.9723 23.0933 22.9723 21.44C22.9723 19.7866 23.2256 18.28 23.7323 16.92C24.2656 15.56 24.9856 14.4 25.8923 13.44C26.8256 12.48 27.9189 11.7333 29.1723 11.2C30.4523 10.6666 31.8389 10.4 33.3323 10.4C34.8523 10.4 36.2389 10.6666 37.4923 11.2C38.7723 11.7333 39.8656 12.48 40.7723 13.44C41.6789 14.4 42.3856 15.56 42.8923 16.92C43.3989 18.28 43.6523 19.7866 43.6523 21.44ZM37.5723 21.44C37.5723 19.6 37.1989 18.16 36.4523 17.12C35.7323 16.0533 34.6923 15.52 33.3323 15.52C31.9723 15.52 30.9189 16.0533 30.1723 17.12C29.4256 18.16 29.0523 19.6 29.0523 21.44C29.0523 23.28 29.4256 24.7466 30.1723 25.84C30.9189 26.9066 31.9723 27.44 33.3323 27.44C34.6923 27.44 35.7323 26.9066 36.4523 25.84C37.1989 24.7466 37.5723 23.28 37.5723 21.44Z" fill="black"/>
<path d="M60.9491 16.24C60.4158 16.1066 59.7891 15.9733 59.0691 15.84C58.3491 15.68 57.5758 15.6 56.7491 15.6C56.3758 15.6 55.9225 15.64 55.3891 15.72C54.8825 15.7733 54.4958 15.84 54.2291 15.92V32H48.2691V12.08C49.3358 11.7066 50.5891 11.36 52.0291 11.04C53.4958 10.6933 55.1225 10.52 56.9091 10.52C57.2291 10.52 57.6158 10.5466 58.0691 10.6C58.5225 10.6266 58.9758 10.68 59.4291 10.76C59.8825 10.8133 60.3358 10.8933 60.7891 11C61.2425 11.08 61.6291 11.1866 61.9491 11.32L60.9491 16.24Z" fill="black"/>
<path d="M69.8335 20.8C69.8335 24.1333 71.1802 25.8 73.8735 25.8C74.4868 25.8 75.0602 25.72 75.5935 25.56C76.1268 25.4 76.5802 25.2133 76.9535 25V15.48C76.6602 15.4266 76.3135 15.3866 75.9135 15.36C75.5135 15.3066 75.0469 15.28 74.5135 15.28C72.9402 15.28 71.7668 15.8 70.9935 16.84C70.2202 17.88 69.8335 19.2 69.8335 20.8ZM82.9135 29.36C82.9135 32.8 82.0335 35.3466 80.2735 37C78.5402 38.68 75.8469 39.52 72.1935 39.52C70.9135 39.52 69.6335 39.4 68.3535 39.16C67.0735 38.9466 65.8868 38.6533 64.7935 38.28L65.8335 33.28C66.7669 33.6533 67.7402 33.9466 68.7535 34.16C69.7935 34.3733 70.9669 34.48 72.2735 34.48C73.9802 34.48 75.1802 34.1066 75.8735 33.36C76.5935 32.6133 76.9535 31.6533 76.9535 30.48V29.72C76.3135 30.0133 75.6469 30.24 74.9535 30.4C74.2868 30.5333 73.5535 30.6 72.7535 30.6C69.8468 30.6 67.6202 29.7466 66.0735 28.04C64.5268 26.3066 63.7535 23.8933 63.7535 20.8C63.7535 19.2533 63.9935 17.8533 64.4735 16.6C64.9535 15.32 65.6468 14.2266 66.5535 13.32C67.4868 12.4133 68.6202 11.72 69.9535 11.24C71.2868 10.7333 72.7935 10.48 74.4735 10.48C75.1935 10.48 75.9268 10.52 76.6735 10.6C77.4468 10.6533 78.2068 10.7333 78.9535 10.84C79.7002 10.9466 80.4069 11.08 81.0735 11.24C81.7669 11.3733 82.3802 11.52 82.9135 11.68V29.36Z" fill="black"/>
<path d="M87.5035 21.64C87.5035 19.7733 87.7835 18.1466 88.3435 16.76C88.9302 15.3466 89.6902 14.1733 90.6235 13.24C91.5568 12.3066 92.6235 11.6 93.8235 11.12C95.0502 10.64 96.3035 10.4 97.5835 10.4C100.57 10.4 102.93 11.32 104.664 13.16C106.397 14.9733 107.264 17.6533 107.264 21.2C107.264 21.5466 107.25 21.9333 107.224 22.36C107.197 22.76 107.17 23.12 107.144 23.44H93.6235C93.7569 24.6666 94.3302 25.64 95.3435 26.36C96.3568 27.08 97.7169 27.44 99.4235 27.44C100.517 27.44 101.584 27.3466 102.624 27.16C103.69 26.9466 104.557 26.6933 105.224 26.4L106.024 31.24C105.704 31.4 105.277 31.56 104.744 31.72C104.21 31.88 103.61 32.0133 102.944 32.12C102.304 32.2533 101.61 32.36 100.864 32.44C100.117 32.52 99.3702 32.56 98.6235 32.56C96.7302 32.56 95.0768 32.28 93.6635 31.72C92.2768 31.16 91.1169 30.4 90.1835 29.44C89.2768 28.4533 88.5968 27.2933 88.1435 25.96C87.7169 24.6266 87.5035 23.1866 87.5035 21.64ZM101.504 19.36C101.477 18.8533 101.384 18.36 101.224 17.88C101.09 17.4 100.864 16.9733 100.544 16.6C100.25 16.2266 99.8635 15.92 99.3835 15.68C98.9302 15.44 98.3568 15.32 97.6635 15.32C96.9968 15.32 96.4235 15.44 95.9435 15.68C95.4635 15.8933 95.0635 16.1866 94.7435 16.56C94.4235 16.9333 94.1702 17.3733 93.9835 17.88C93.8235 18.36 93.7035 18.8533 93.6235 19.36H101.504Z" fill="black"/>
<path d="M119.823 27.24C120.703 27.24 121.423 27.1733 121.983 27.04C122.57 26.88 123.036 26.68 123.383 26.44C123.73 26.1733 123.97 25.8666 124.103 25.52C124.236 25.1733 124.303 24.7866 124.303 24.36C124.303 23.4533 123.876 22.7066 123.023 22.12C122.17 21.5066 120.703 20.8533 118.623 20.16C117.716 19.84 116.81 19.48 115.903 19.08C114.996 18.6533 114.183 18.1333 113.463 17.52C112.743 16.88 112.156 16.12 111.703 15.24C111.25 14.3333 111.023 13.24 111.023 11.96C111.023 10.68 111.263 9.53329 111.743 8.51996C112.223 7.47996 112.903 6.59996 113.783 5.87996C114.663 5.15996 115.73 4.61329 116.983 4.23996C118.236 3.83996 119.65 3.63996 121.223 3.63996C123.09 3.63996 124.703 3.83996 126.063 4.23996C127.423 4.63996 128.543 5.07996 129.423 5.55996L127.623 10.48C126.85 10.08 125.983 9.73329 125.023 9.43996C124.09 9.11996 122.956 8.95996 121.623 8.95996C120.13 8.95996 119.05 9.1733 118.383 9.59996C117.743 9.99996 117.423 10.6266 117.423 11.48C117.423 11.9866 117.543 12.4133 117.783 12.76C118.023 13.1066 118.356 13.4266 118.783 13.72C119.236 13.9866 119.743 14.24 120.303 14.48C120.89 14.6933 121.53 14.92 122.223 15.16C123.663 15.6933 124.916 16.2266 125.983 16.76C127.05 17.2666 127.93 17.8666 128.623 18.56C129.343 19.2533 129.876 20.0666 130.223 21C130.57 21.9333 130.743 23.0666 130.743 24.4C130.743 26.9866 129.836 29 128.023 30.44C126.21 31.8533 123.476 32.56 119.823 32.56C118.596 32.56 117.49 32.48 116.503 32.32C115.516 32.1866 114.636 32.0133 113.863 31.8C113.116 31.5866 112.463 31.36 111.903 31.12C111.37 30.88 110.916 30.6533 110.543 30.44L112.303 25.48C113.13 25.9333 114.143 26.3466 115.343 26.72C116.57 27.0666 118.063 27.24 119.823 27.24Z" fill="black"/>
<path d="M135.144 32V1.91996L141.104 0.959961V11.04C141.504 10.9066 142.011 10.7866 142.624 10.68C143.264 10.5466 143.877 10.48 144.464 10.48C146.171 10.48 147.584 10.72 148.704 11.2C149.851 11.6533 150.757 12.3066 151.424 13.16C152.117 14.0133 152.597 15.0266 152.864 16.2C153.157 17.3733 153.304 18.68 153.304 20.12V32H147.344V20.84C147.344 18.92 147.091 17.56 146.584 16.76C146.104 15.96 145.197 15.56 143.864 15.56C143.331 15.56 142.824 15.6133 142.344 15.72C141.891 15.8 141.477 15.8933 141.104 16V32H135.144Z" fill="black"/>
<path d="M178.379 21.44C178.379 23.0933 178.139 24.6133 177.659 26C177.179 27.36 176.485 28.5333 175.579 29.52C174.672 30.48 173.579 31.2266 172.299 31.76C171.046 32.2933 169.632 32.56 168.059 32.56C166.512 32.56 165.099 32.2933 163.819 31.76C162.566 31.2266 161.485 30.48 160.579 29.52C159.672 28.5333 158.965 27.36 158.459 26C157.952 24.6133 157.699 23.0933 157.699 21.44C157.699 19.7866 157.952 18.28 158.459 16.92C158.992 15.56 159.712 14.4 160.619 13.44C161.552 12.48 162.646 11.7333 163.899 11.2C165.179 10.6666 166.565 10.4 168.059 10.4C169.579 10.4 170.965 10.6666 172.219 11.2C173.499 11.7333 174.592 12.48 175.499 13.44C176.405 14.4 177.112 15.56 177.619 16.92C178.126 18.28 178.379 19.7866 178.379 21.44ZM172.299 21.44C172.299 19.6 171.926 18.16 171.179 17.12C170.459 16.0533 169.419 15.52 168.059 15.52C166.699 15.52 165.646 16.0533 164.899 17.12C164.152 18.16 163.779 19.6 163.779 21.44C163.779 23.28 164.152 24.7466 164.899 25.84C165.646 26.9066 166.699 27.44 168.059 27.44C169.419 27.44 170.459 26.9066 171.179 25.84C171.926 24.7466 172.299 23.28 172.299 21.44Z" fill="black"/>
<path d="M196.476 21.64C196.476 19.8 196.062 18.3333 195.236 17.24C194.409 16.12 193.182 15.56 191.556 15.56C191.022 15.56 190.529 15.5866 190.076 15.64C189.622 15.6666 189.249 15.7066 188.956 15.76V26.52C189.329 26.76 189.809 26.96 190.396 27.12C191.009 27.28 191.622 27.36 192.236 27.36C195.062 27.36 196.476 25.4533 196.476 21.64ZM202.556 21.48C202.556 23.1066 202.356 24.5866 201.956 25.92C201.556 27.2533 200.969 28.4 200.196 29.36C199.422 30.32 198.462 31.0666 197.316 31.6C196.169 32.1333 194.849 32.4 193.356 32.4C192.529 32.4 191.756 32.32 191.036 32.16C190.316 32 189.622 31.7733 188.956 31.48V39.4H182.996V11.68C183.529 11.52 184.142 11.3733 184.836 11.24C185.529 11.08 186.249 10.9466 186.996 10.84C187.769 10.7333 188.542 10.6533 189.316 10.6C190.116 10.52 190.876 10.48 191.596 10.48C193.329 10.48 194.876 10.7466 196.236 11.28C197.596 11.7866 198.742 12.52 199.676 13.48C200.609 14.4133 201.316 15.56 201.796 16.92C202.302 18.28 202.556 19.8 202.556 21.48Z" fill="black"/>
</svg>
