<?xml version="1.0" encoding="UTF-8"?>
<svg xmlns="http://www.w3.org/2000/svg" version="1.1" viewBox="0 0 384 383.27">
  <!-- Generator: Adobe Illustrator 28.7.1, SVG Export Plug-In . SVG Version: 1.2.0 Build 142)  -->
  <g>
    <g id="Capa_1">
      <path d="M314.25,383.27h-13.5c-1.08-.25-2.15-.6-3.24-.75-31.06-4.45-52.95-35.04-46.96-65.74.64-3.26,1.66-6.44,2.55-9.83h-83.84c.4,1.52.69,2.71,1.04,3.89,9.13,31.07-9.07,62.86-40.49,70.7-2.51.63-5.04,1.16-7.56,1.74h-13.5c-.96-.24-1.9-.58-2.87-.71-30.59-4.29-52.33-33.42-47.84-64,2.94-20.05,13.76-34.62,31.03-44.69,2.21-1.29,3.06-2.34,2.66-5.15-4.26-29.59-8.27-59.21-12.4-88.82-6.43-46.14-12.92-92.27-19.29-138.42-.35-2.56-1.27-3.27-3.76-3.25-11.87.11-23.73.07-35.6.03-2.11,0-4.26-.07-6.33-.48-8.06-1.58-12.17-7.16-14.35-14.57v-8.23C5.02,2.72,9.14,0,22.66,0c17.24,0,34.49,0,51.73,0,11.83,0,19.43,6.28,21.69,17.97,1.3,6.69,2.51,13.4,3.81,20.3,1.88,0,3.49,0,5.1,0,85.72,0,171.44.03,257.16-.04,9.91,0,17.97,2.61,21.85,12.67v11.98c-.43,1.14-.97,2.25-1.26,3.42-12.11,48.31-24.21,96.63-36.27,144.96-3.63,14.56-8.8,18.64-23.91,18.64-63.6,0-127.2,0-190.79,0h-5.07c1.76,11.55,3.69,22.59,4.99,33.71.47,3.99,1.96,4.7,5.58,4.7,55.48-.1,110.95-.08,166.43-.06,2.99,0,6,.12,8.98.36,27.48,2.2,49.39,23.59,51.76,50.49,2.63,29.83-13.99,54.67-41.57,62.07-2.86.77-5.75,1.4-8.63,2.09ZM120.94,191.49h190.14c9.56-38.16,19.1-76.27,28.68-114.52H103.73c5.76,38.32,11.46,76.24,17.21,114.52ZM134.33,325.89c.03-11.54-7.35-19.07-18.84-19.19-11.69-.12-19.44,7.43-19.48,18.98-.04,11.51,7.79,19.36,19.27,19.31,11.35-.04,19.02-7.73,19.05-19.1ZM307.2,306.69c-11.5,0-19.13,7.51-19.2,18.89-.07,11.53,7.7,19.39,19.18,19.4,11.49,0,19.19-7.8,19.14-19.39-.05-11.45-7.61-18.92-19.12-18.91Z"/>
    </g>
  </g>
</svg>